<svg xmlns="http://www.w3.org/2000/svg" width="144" height="144" viewBox="0 0 144 144" fill="none"><g clip-path="url(#clip0_257:2)"><path d="M47.5842 13.059L47.6842 13.269L44.9642 14.585L44.8642 14.374L45.5442 13.844L43.8512 12.044L41.3512 13.253L41.6512 15.716L42.5992 15.473L42.6992 15.683L40.7142 16.643L40.6142 16.432L41.2592 15.89L40.2832 7.172L40.7272 6.95801L46.8032 13.237L47.5842 13.059ZM43.6102 11.783L40.8252 8.823L41.3112 12.895L43.6102 11.783Z" fill="black"></path><path d="M56.3145 7.89498C56.9575 10.059 54.6355 10.995 53.2805 11.395L50.1804 12.314L50.1144 12.09L51.1384 11.529L48.9744 4.24096H48.9624L47.7944 4.31698L47.7314 4.10598L51.0884 3.10598C52.6884 2.62998 54.1944 2.53596 54.6484 4.06496C54.9844 5.19696 54.3344 6.01297 53.2734 6.54397C54.6444 6.27997 55.8865 6.45298 56.3145 7.89498ZM50.1644 3.72698L51.1505 7.04696L51.9964 6.79598C52.2528 6.75413 52.4966 6.65518 52.7097 6.50646C52.9227 6.35774 53.0996 6.16304 53.2273 5.93676C53.355 5.71048 53.4302 5.4584 53.4473 5.19915C53.4645 4.9399 53.4232 4.68012 53.3264 4.43899C53.0264 3.43199 52.3654 3.07296 51.0474 3.46496L50.1644 3.72698ZM55.0084 8.28298C54.4814 6.50498 52.8544 6.90598 52.1204 7.12398L51.2504 7.38299L52.4135 11.3L53.1844 11.071C53.4979 11.0292 53.7986 10.9204 54.0662 10.7519C54.3337 10.5834 54.5618 10.3593 54.7349 10.0947C54.908 9.8301 55.0221 9.53129 55.0693 9.21865C55.1165 8.90601 55.0957 8.58688 55.0084 8.28298V8.28298Z" fill="black"></path><path d="M59.4448 5.34625C59.1108 2.66825 60.2777 0.797269 62.6987 0.495269C65.1197 0.193269 66.7127 1.74824 67.0417 4.38824C67.3797 7.10624 66.2328 9.02727 63.7858 9.33127C61.3388 9.63527 59.7798 8.03825 59.4448 5.34625ZM65.6638 4.56024C65.3638 2.12624 64.3118 0.634261 62.7408 0.830261C61.1408 1.03026 60.5197 2.74126 60.8207 5.16226C61.1297 7.64826 62.1598 9.19427 63.7568 8.99527C65.3278 8.79927 65.9728 7.04624 65.6638 4.56024Z" fill="black"></path><path d="M71.4058 5.64301L71.6298 0.5L70.5518 0.233002L70.5618 0L74.0078 0.150024L73.9977 0.383026L72.9128 0.556L72.6888 5.686C72.6308 7.007 72.8827 8.386 74.8257 8.466C76.5747 8.542 77.1978 7.34901 77.2698 5.70401L77.4858 0.756012L76.4067 0.488007L76.4178 0.255005L79.0598 0.370026L79.0497 0.602997L77.9498 0.776001L77.7318 5.776C77.6638 7.343 77.0458 9.01601 74.4318 8.90201C71.6198 8.78001 71.3508 6.92601 71.4058 5.64301Z" fill="black"></path><path d="M89.5206 4.70813L89.3206 4.66513L89.0206 2.51913L87.0656 2.10614L85.4547 9.72314L86.4756 10.1641L86.4276 10.3931L83.0446 9.67413L83.0927 9.44614L84.2047 9.45615L85.8156 1.83813L83.8607 1.42514L82.7156 3.26514L82.5156 3.22214L83.0046 0.911133L90.0117 2.39413L89.5206 4.70813Z" fill="black"></path><path d="M97.7883 11.0168L100.053 6.39481L99.1723 5.7178L99.2723 5.50781L102.372 7.02679L102.272 7.23581L101.208 6.95981L98.9483 11.5698C98.3663 12.7578 98.0483 14.1168 99.7933 14.9698C101.364 15.7408 102.413 14.8978 103.138 13.4188L105.318 8.9718L104.437 8.2948L104.537 8.08481L106.912 9.24881L106.812 9.4588L105.737 9.17679L103.537 13.6708C102.846 15.0798 101.61 16.3648 99.2593 15.2128C96.7273 13.9738 97.2233 12.1738 97.7883 11.0168Z" fill="black"></path><path d="M106.476 16.916C106.538 16.8023 106.624 16.7024 106.726 16.6225C106.828 16.5426 106.946 16.4843 107.072 16.4512C107.198 16.4181 107.329 16.4109 107.457 16.4299C107.586 16.449 107.709 16.4939 107.82 16.562C107.897 16.6066 107.965 16.6662 108.019 16.7374C108.072 16.8085 108.112 16.8898 108.133 16.9764C108.155 17.0629 108.16 17.1529 108.146 17.2412C108.133 17.3294 108.101 17.4141 108.055 17.4901C107.897 17.4308 107.723 17.4293 107.564 17.4858C107.405 17.5424 107.272 17.6533 107.187 17.799C106.798 18.35 106.971 19.2991 107.968 19.9991C108.965 20.6991 109.938 20.6731 110.468 19.9211C111.806 18.0211 108.075 15.185 109.436 13.255C110.213 12.155 111.711 12.145 113.153 13.161C114.511 14.118 114.653 15.285 114.133 16.027C114.076 16.1313 113.998 16.2225 113.904 16.2949C113.81 16.3673 113.702 16.4193 113.587 16.4476C113.472 16.4758 113.352 16.4797 113.235 16.4589C113.118 16.4382 113.007 16.3933 112.909 16.3271C112.762 16.2354 112.654 16.0934 112.605 15.9277C112.555 15.762 112.568 15.584 112.641 15.427C112.816 15.4777 113.003 15.4718 113.174 15.4102C113.346 15.3486 113.494 15.2345 113.597 15.084C114.023 14.484 113.586 13.8391 112.897 13.3521C111.91 12.6521 111.04 12.6311 110.546 13.3311C109.529 14.7731 113.269 17.711 111.676 19.97C110.876 21.105 109.276 21.3261 107.664 20.1891C106 19.0091 105.99 17.605 106.476 16.916Z" fill="black"></path><path d="M129.464 45.7361L129.257 45.8441L127.857 43.1681L128.064 43.0591L128.617 43.7211L130.364 41.9691L129.074 39.5111L126.621 39.8891L126.894 40.8301L126.688 40.9391L125.663 38.9851L125.87 38.8771L126.433 39.5041L135.12 38.2441L135.349 38.6801L129.267 44.9631L129.464 45.7361ZM130.611 41.7211L133.479 38.8391L129.423 39.4571L130.611 41.7211Z" fill="black"></path><path d="M134.907 54.2791C132.766 54.9941 131.757 52.7061 131.307 51.3651L130.285 48.303L130.506 48.229L131.106 49.234L138.313 46.828V46.816L138.198 45.652L138.407 45.582L139.515 48.903C140.045 50.489 140.188 51.9861 138.676 52.4901C137.556 52.8641 136.72 52.241 136.154 51.2C136.464 52.557 136.334 53.8031 134.907 54.2791ZM134.475 52.988C136.234 52.401 135.775 50.7881 135.537 50.0641L135.25 49.203L131.375 50.496L131.63 51.259C131.683 51.5705 131.801 51.8671 131.979 52.1286C132.156 52.39 132.387 52.6103 132.657 52.7743C132.927 52.9384 133.229 53.0424 133.543 53.0793C133.857 53.1161 134.175 53.085 134.475 52.988V52.988ZM138.865 47.997L135.582 49.097L135.86 49.9341C135.91 50.189 136.017 50.4293 136.173 50.6373C136.329 50.8453 136.529 51.0155 136.76 51.1355C136.99 51.2554 137.245 51.322 137.505 51.3302C137.764 51.3385 138.023 51.2882 138.26 51.183C139.26 50.851 139.592 50.183 139.16 48.875L138.865 47.997Z" fill="black"></path><path d="M137.551 57.337C140.217 56.918 142.125 58.023 142.504 60.437C142.883 62.851 141.379 64.488 138.753 64.901C136.047 65.326 134.091 64.241 133.709 61.801C133.327 59.361 134.873 57.757 137.551 57.337ZM138.537 63.526C140.959 63.145 142.416 62.049 142.17 60.486C141.92 58.896 140.189 58.327 137.779 58.706C135.305 59.095 133.794 60.173 134.044 61.762C134.291 63.326 136.064 63.914 138.538 63.526H138.537Z" fill="black"></path><path d="M137.656 69.2959L142.805 69.3809L143.044 68.2949H143.277L143.22 71.7449H142.987L142.787 70.6649L137.651 70.5809C136.328 70.5589 134.961 70.8479 134.928 72.7929C134.9 74.5439 136.11 75.1349 137.757 75.1619L142.712 75.2429L142.95 74.1579H143.183L143.139 76.8039H142.906L142.706 75.7119L137.699 75.6289C136.13 75.6029 134.44 75.0289 134.483 72.4099C134.524 69.5949 136.372 69.2739 137.656 69.2959Z" fill="black"></path><path d="M139.164 87.3576L139.2 87.1576L141.334 86.7836L141.681 84.8176L134.018 83.4626L133.611 84.4966L133.381 84.4566L133.981 81.0566L134.211 81.0976L134.238 82.2086L141.901 83.5636L142.249 81.5966L140.373 80.5146L140.409 80.3096L142.733 80.7206L141.487 87.7706L139.164 87.3576Z" fill="black"></path><path d="M133.129 95.8205L137.824 97.9345L138.472 97.0345L138.685 97.1345L137.268 100.28L137.055 100.181L137.297 99.1085L132.614 96.9995C131.407 96.4565 130.038 96.1805 129.239 97.9545C128.52 99.5545 129.397 100.573 130.899 101.249L135.417 103.283L136.065 102.383L136.278 102.483L135.191 104.895L134.978 104.795L135.225 103.711L130.66 101.655C129.229 101.011 127.904 99.8165 128.979 97.4275C130.135 94.8565 131.958 95.2935 133.129 95.8205Z" fill="black"></path><path d="M127.507 104.71C127.623 104.769 127.726 104.85 127.809 104.95C127.893 105.05 127.955 105.165 127.992 105.29C128.03 105.414 128.041 105.545 128.027 105.675C128.012 105.804 127.972 105.929 127.907 106.042C127.865 106.12 127.808 106.19 127.738 106.246C127.669 106.302 127.589 106.343 127.503 106.368C127.418 106.392 127.328 106.399 127.24 106.389C127.151 106.378 127.066 106.35 126.988 106.306C127.042 106.146 127.038 105.973 126.976 105.816C126.915 105.659 126.8 105.529 126.652 105.449C126.089 105.078 125.147 105.282 124.477 106.3C123.807 107.318 123.868 108.289 124.636 108.795C126.576 110.071 129.29 106.253 131.261 107.549C132.387 108.291 132.444 109.786 131.474 111.259C130.562 112.646 129.402 112.83 128.643 112.331C128.538 112.277 128.444 112.202 128.369 112.11C128.295 112.018 128.24 111.912 128.208 111.797C128.177 111.683 128.17 111.564 128.187 111.446C128.204 111.329 128.246 111.217 128.309 111.117C128.396 110.966 128.535 110.853 128.699 110.797C128.864 110.742 129.043 110.749 129.203 110.817C129.158 110.993 129.169 111.179 129.236 111.349C129.303 111.519 129.422 111.663 129.575 111.761C130.193 112.168 130.819 111.71 131.283 111.006C131.945 109.999 131.943 109.128 131.228 108.658C129.755 107.689 126.941 111.519 124.633 110.001C123.474 109.238 123.202 107.647 124.285 106.001C125.401 104.302 126.803 104.247 127.507 104.71Z" fill="black"></path><path d="M94.8021 130.656L94.7021 130.445L97.4431 129.172L97.5432 129.384L96.8551 129.903L98.5191 131.734L101.037 130.565L100.777 128.096L99.8251 128.324L99.7251 128.112L101.725 127.184L101.825 127.396L101.172 127.928L102.009 136.662L101.563 136.87L95.5841 130.493L94.8021 130.656ZM98.7551 131.995L101.495 134.995L101.073 130.915L98.7551 131.995Z" fill="black"></path><path d="M85.9772 135.686C85.3682 133.511 87.7052 132.615 89.0672 132.235L92.1792 131.364L92.2422 131.589L91.2092 132.134L93.2562 139.457H93.2692L94.4382 139.4L94.4982 139.613L91.1242 140.556C89.5112 141.007 88.0082 141.076 87.5792 139.539C87.2602 138.403 87.9242 137.597 88.9932 137.082C87.6212 137.327 86.3822 137.135 85.9772 135.686ZM87.2892 135.319C87.7892 137.106 89.4222 136.73 90.1592 136.524L91.0332 136.278L89.9332 132.342L89.1582 132.559C88.844 132.596 88.5413 132.7 88.2708 132.864C88.0004 133.028 87.7686 133.249 87.5912 133.511C87.4137 133.773 87.2949 134.07 87.2428 134.382C87.1907 134.694 87.2065 135.014 87.2892 135.319ZM92.0612 139.953L91.1282 136.616L90.2782 136.854C90.021 136.892 89.7756 136.987 89.5601 137.132C89.3446 137.278 89.1645 137.469 89.0332 137.694C88.9018 137.918 88.8226 138.169 88.8013 138.428C88.78 138.687 88.8172 138.948 88.9102 139.19C89.1932 140.202 89.8492 140.571 91.1732 140.201L92.0612 139.953Z" fill="black"></path><path d="M82.8101 138.182C83.1021 140.863 81.9101 142.716 79.4841 142.982C77.0581 143.248 75.492 141.668 75.204 139.026C74.904 136.305 76.084 134.403 78.534 134.136C80.984 133.869 82.517 135.487 82.8101 138.182ZM76.584 138.873C76.849 141.31 77.8741 142.816 79.4471 142.645C81.0471 142.471 81.6961 140.769 81.4321 138.345C81.1611 135.857 80.1561 134.296 78.5571 134.47C76.9841 134.642 76.313 136.385 76.584 138.874V138.873Z" fill="black"></path><path d="M70.8397 137.704L70.5397 142.847L71.6147 143.131L71.6007 143.364L68.1547 143.164L68.1687 142.931L69.2567 142.775L69.5567 137.645C69.6347 136.323 69.4037 134.945 67.4567 134.83C65.7077 134.73 65.0657 135.911 64.9687 137.557L64.6777 142.505L65.7527 142.789L65.7387 143.023L63.0967 142.867L63.1097 142.634L64.2097 142.478L64.5047 137.478C64.5967 135.91 65.2417 134.245 67.8577 134.4C70.6737 134.562 70.9157 136.421 70.8397 137.704Z" fill="black"></path><path d="M52.7194 138.35L52.9194 138.397L53.1874 140.546L55.1354 140.99L56.8654 133.401L55.8524 132.944L55.9034 132.716L59.2684 133.483L59.2164 133.711L58.1054 133.684L56.3745 141.274L58.3224 141.717L59.4964 139.896L59.6964 139.942L59.1714 142.242L52.1895 140.651L52.7194 138.35Z" fill="black"></path><path d="M44.5748 131.918L42.2368 136.504L43.1078 137.195L43.0018 137.403L39.9288 135.836L40.0348 135.628L41.0938 135.921L43.4258 131.347C44.0258 130.168 44.3678 128.815 42.6348 127.931C41.0758 127.136 40.0138 127.962 39.2658 129.431L37.0158 133.844L37.8858 134.534L37.7798 134.742L35.4238 133.542L35.5298 133.334L36.5998 133.634L38.8738 129.176C39.5868 127.776 40.8428 126.512 43.1738 127.702C45.6828 128.974 45.1588 130.774 44.5748 131.918Z" fill="black"></path><path d="M35.9686 125.874C35.904 125.987 35.8174 126.085 35.7137 126.164C35.61 126.242 35.4915 126.298 35.3653 126.329C35.2392 126.361 35.1081 126.366 34.9799 126.345C34.8517 126.324 34.7291 126.277 34.6196 126.207C34.543 126.161 34.4765 126.101 34.4238 126.029C34.3711 125.957 34.3334 125.875 34.3129 125.789C34.2924 125.702 34.2895 125.612 34.3044 125.524C34.3192 125.436 34.3517 125.352 34.3996 125.277C34.557 125.338 34.7308 125.341 34.8904 125.286C35.05 125.232 35.185 125.122 35.2715 124.977C35.6715 124.432 35.5085 123.482 34.5235 122.765C33.5385 122.048 32.5665 122.065 32.0235 122.806C30.6575 124.683 34.3426 127.573 32.9546 129.481C32.1606 130.571 30.6646 130.557 29.2386 129.519C27.8966 128.542 27.7685 127.374 28.3025 126.641C28.3611 126.538 28.4405 126.448 28.5356 126.378C28.6308 126.307 28.7396 126.257 28.8552 126.231C28.9708 126.205 29.0905 126.203 29.2068 126.226C29.3231 126.249 29.4334 126.295 29.5306 126.363C29.6763 126.457 29.7826 126.602 29.8294 126.769C29.8762 126.936 29.8602 127.115 29.7845 127.271C29.6105 127.218 29.424 127.22 29.2516 127.279C29.0793 127.338 28.9298 127.449 28.8246 127.598C28.3896 128.198 28.8165 128.843 29.4975 129.339C30.4725 130.048 31.3416 130.088 31.8456 129.396C32.8836 127.97 29.1916 124.979 30.8166 122.746C31.6326 121.624 33.2355 121.427 34.8285 122.587C36.4755 123.791 36.4646 125.194 35.9686 125.874Z" fill="black"></path><path d="M13.4432 96.7134L13.6522 96.6074L15.0142 99.3074L14.8052 99.4124L14.2632 98.7414L12.4882 100.465L13.7392 102.943L16.1982 102.603L15.9392 101.658L16.1482 101.553L17.1412 103.522L16.9322 103.628L16.3792 102.991L7.6792 104.114L7.45117 103.674L13.6302 97.4904L13.4432 96.7134ZM12.2342 100.708L9.32019 103.544L13.3852 102.99L12.2342 100.708Z" fill="black"></path><path d="M8.12954 88.0632C10.2825 87.3832 11.2555 89.6892 11.6815 91.0382L12.6535 94.1192L12.4315 94.1892L11.8506 93.1742L4.59854 95.4642V95.4762L4.69851 96.6432L4.48855 96.7092L3.43356 93.3682C2.93356 91.7682 2.81052 90.2682 4.33352 89.7912C5.45952 89.4362 6.28652 90.0732 6.83352 91.1242C6.54252 89.7612 6.69354 88.5162 8.12954 88.0632ZM4.06552 94.2852L7.36556 93.2422L7.09951 92.4012C7.05337 92.1454 6.95035 91.9032 6.798 91.6926C6.64565 91.482 6.4479 91.3084 6.21939 91.1845C5.99087 91.0607 5.73742 90.9898 5.47781 90.9771C5.2182 90.9644 4.95902 91.0102 4.71951 91.1112C3.71951 91.4272 3.37051 92.0952 3.78451 93.4062L4.06552 94.2852ZM8.53952 89.3621C6.77051 89.9211 7.19957 91.5401 7.43057 92.2711L7.70352 93.1372L11.6035 91.9062L11.3615 91.1392C11.3146 90.826 11.2007 90.5268 11.0276 90.2617C10.8544 89.9967 10.626 89.7721 10.3581 89.6034C10.0902 89.4347 9.78904 89.3258 9.47518 89.2842C9.16133 89.2426 8.84215 89.2691 8.53952 89.3621V89.3621Z" fill="black"></path><path d="M5.53428 84.9742C2.86128 85.3522 0.971257 84.2173 0.634257 81.8013C0.297257 79.3853 1.82029 77.7682 4.45329 77.4012C7.16429 77.0172 9.10429 78.1333 9.45329 80.5743C9.80229 83.0153 8.21928 84.5952 5.53428 84.9742ZM4.64427 78.7743C2.21527 79.1173 0.744298 80.1913 0.963298 81.7583C1.1893 83.3513 2.91127 83.9473 5.32627 83.6053C7.80627 83.2553 9.33529 82.2053 9.10929 80.6053C8.88829 79.0363 7.12427 78.4213 4.64427 78.7743Z" fill="black"></path><path d="M5.63202 73.0299L0.484009 72.891L0.234009 73.9739L0 73.968L0.0930176 70.5179L0.327026 70.524L0.518005 71.607L5.65399 71.7459C6.97699 71.7809 8.34702 71.507 8.40002 69.562C8.44702 67.811 7.24398 67.207 5.59998 67.162L0.645996 67.028L0.395996 68.1119L0.161987 68.106L0.234009 65.46L0.46698 65.4659L0.65802 66.5659L5.66498 66.701C7.23398 66.743 8.91902 67.3339 8.84802 69.9539C8.76802 72.7639 6.91702 73.0649 5.63202 73.0299Z" fill="black"></path><path d="M4.39594 54.9267L4.35596 55.1267L2.21393 55.4647L1.83392 57.4267L9.47894 58.9097L9.90295 57.8817L10.132 57.9258L9.47491 61.3157L9.24493 61.2707L9.23596 60.1587L1.59192 58.6747L1.21094 60.6377L3.06995 61.7517L3.03094 61.9518L0.711914 61.5017L2.07697 54.4688L4.39594 54.9267Z" fill="black"></path><path d="M10.5507 46.5735L5.88568 44.3866L5.22369 45.2805L5.01172 45.1805L6.47772 42.0546L6.68872 42.1545L6.4317 43.2235L11.0837 45.4055C12.2837 45.9665 13.6477 46.2636 14.4747 44.5056C15.2177 42.9196 14.3557 41.8845 12.8637 41.1845L8.37567 39.0846L7.71271 39.9775L7.50171 39.8776L8.62567 37.4775L8.83667 37.5775L8.57367 38.6585L13.1087 40.7845C14.5307 41.4515 15.8387 42.6666 14.7257 45.0396C13.5347 47.5846 11.7177 47.1195 10.5507 46.5735Z" fill="black"></path><path d="M16.3234 37.7598C16.2086 37.6989 16.1073 37.6154 16.0257 37.5143C15.9441 37.4131 15.884 37.2964 15.8488 37.1713C15.8137 37.0462 15.8043 36.9153 15.8212 36.7864C15.8382 36.6576 15.8811 36.5335 15.9474 36.4218C15.9907 36.3439 16.0491 36.2754 16.1193 36.2205C16.1895 36.1655 16.27 36.1252 16.3561 36.1019C16.4421 36.0786 16.532 36.0728 16.6203 36.0848C16.7086 36.0968 16.7937 36.1264 16.8704 36.1718C16.8141 36.3305 16.8156 36.504 16.8747 36.6617C16.9338 36.8194 17.0466 36.9511 17.1934 37.0338C17.7514 37.4128 18.6933 37.2238 19.3813 36.2158C20.0693 35.2078 20.0224 34.2358 19.2604 33.7158C17.3404 32.4098 14.5684 36.1878 12.6154 34.8598C11.5004 34.1018 11.4664 32.6048 12.4584 31.1458C13.3924 29.7728 14.5584 29.6078 15.3064 30.1178C15.4112 30.1731 15.5033 30.2497 15.5768 30.3426C15.6504 30.4355 15.7038 30.5427 15.7336 30.6574C15.7634 30.7721 15.769 30.8918 15.7501 31.0087C15.7311 31.1257 15.6879 31.2374 15.6234 31.3368C15.5339 31.4858 15.3929 31.5969 15.2271 31.6491C15.0612 31.7012 14.8821 31.6908 14.7234 31.6198C14.7714 31.4441 14.7626 31.2577 14.6983 31.0873C14.634 30.9168 14.5175 30.7711 14.3654 30.6708C13.7544 30.2548 13.1204 30.7018 12.6464 31.3998C11.9674 32.3998 11.9564 33.2678 12.6644 33.7488C14.1234 34.7408 16.9964 30.9538 19.2814 32.5068C20.4294 33.2878 20.6814 34.8838 19.5684 36.5138C18.4244 38.1998 17.0214 38.2348 16.3234 37.7598Z" fill="black"></path></g><defs><clipPath id="clip0_257:2"><rect width="143.277" height="143.364" fill="white"></rect></clipPath></defs></svg>